<?xml version="1.0" encoding="utf-8"?>
<!-- Generator: Adobe Illustrator 16.0.3, SVG Export Plug-In . SVG Version: 6.00 Build 0)  -->
<!DOCTYPE svg PUBLIC "-//W3C//DTD SVG 1.1//EN" "http://www.w3.org/Graphics/SVG/1.1/DTD/svg11.dtd">
<svg version="1.1" id="sticker_A3" xmlns="http://www.w3.org/2000/svg" xmlns:xlink="http://www.w3.org/1999/xlink" x="0px" y="0px"
	 width="637.795px" height="637.813px" viewBox="0 0 637.795 637.813" enable-background="new 0 0 637.795 637.813"
	 xml:space="preserve">
<g>
	<g>
		<path fill="#F7941E" d="M318.675,0c-35.283,0-70.113,5.85-103.551,17.4c-32.869,11.341-63.494,27.868-91.059,49.109
			c-27.823,21.469-51.734,47.154-71.058,76.348c-19.993,30.195-34.612,63.495-43.45,98.94
			C-0.845,283.54-2.771,326.101,3.851,368.282c6.396,40.718,20.443,79.362,41.76,114.84c21.32,35.491,48.84,66.041,81.781,90.806
			c34.135,25.649,72.599,43.932,114.339,54.349c25.387,6.333,51.425,9.537,77.369,9.537c35.275,0,70.122-5.845,103.558-17.397
			c32.871-11.346,63.497-27.866,91.066-49.108c27.82-21.463,51.733-47.144,71.063-76.334c19.993-30.19,34.615-63.482,43.451-98.92
			c10.403-41.751,12.328-84.315,5.705-126.499c-6.402-40.722-20.453-79.37-41.773-114.85
			c-21.326-35.499-48.849-66.052-81.806-90.821c-34.128-25.651-72.602-43.938-114.357-54.348C370.621,3.206,344.606,0,318.675,0
			L318.675,0z"/>
	</g>
	<g>
		<g>
			<g>
				<path fill="#FFFFFF" d="M383.659,203.202l13.167-52.817l-32.164-8.004l-12.819,51.436c-8.452-2.117-17.127-4.104-25.754-6.071
					l12.92-51.776l-32.149-8.013l-13.184,52.808c-6.996-1.597-13.862-3.166-20.524-4.83l0.033-0.148l-44.35-11.085l-8.552,34.352
					c0,0,23.864,5.447,23.366,5.797c13.019,3.257,15.366,11.875,14.978,18.706L248.59,263.79l-9.272,37.239l-16.77,67.247
					c-1.611,3.949-5.639,9.89-14.752,7.623c0.331,0.479-23.366-5.82-23.366-5.82l-15.965,36.801l41.853,10.44
					c7.774,1.95,15.41,3.982,22.92,5.92l-13.301,53.428l32.117,8.008l13.173-52.867c8.774,2.382,17.286,4.583,25.623,6.65
					l-13.128,52.607l32.149,8.016l13.311-53.33c54.828,10.373,96.067,6.188,113.428-43.388c13.967-39.947-0.712-62.973-29.56-77.989
					c21.015-4.848,36.847-18.669,41.063-47.218C453.95,238.16,424.252,217.194,383.659,203.202z M374.646,380.185
					c-9.947,39.925-77.18,18.345-98.973,12.933l17.667-70.777C315.131,327.763,385.027,338.531,374.646,380.185z M384.589,276.568
					c-9.058,36.344-65.025,17.883-83.188,13.352l16.012-64.197C335.576,230.242,394.031,238.691,384.589,276.568z"/>
			</g>
		</g>
		<g>
			<path fill="#FFFFFF" d="M67.158,245.904c4.309,0.902,7.478,3.09,9.422,6.616c1.945,3.526,2.437,7.764,1.402,12.697l-4.294,20.499
				l-48.643-10.189l4.019-19.179c2.037-9.729,8.644-14.945,17.19-13.155c4.1,0.859,6.976,3.058,8.713,6.54
				C58.259,246.144,62.294,244.885,67.158,245.904z M38.771,265.418l7.644,1.602l1.339-6.394c0.466-2.224-0.56-4.252-2.992-4.761
				c-2.293-0.48-4.171,0.867-4.651,3.16L38.771,265.418z M66.792,263.236c0.523-2.502-0.78-4.588-3.212-5.098
				c-2.502-0.524-4.464,0.879-4.988,3.38l-1.615,7.713l8.199,1.718L66.792,263.236z"/>
			<path fill="#FFFFFF" d="M38.851,221.269l4.427-11.912l46.581,17.314l-4.428,11.911L38.851,221.269z"/>
			<path fill="#FFFFFF" d="M67.727,160.125l10.775,5.895l-5.895,10.775l32.824,17.956L99.333,205.9l-32.825-17.956l-5.895,10.775
				l-10.775-5.895L67.727,160.125z"/>
			<path fill="#FFFFFF" d="M113.959,169.345c-6.954,0.581-13.244-1.52-18.916-6.247s-8.871-10.536-9.497-17.436
				c-0.681-6.945,1.41-13.335,6.184-19.062c2.863-3.436,6.363-5.971,10.454-7.553c4.091-1.581,8.181-2.053,12.371-1.425
				l-2.191,12.498c-3.899-0.755-8.136,0.89-11.091,4.435c-2.545,3.054-3.609,6.326-3.291,9.826c0.363,3.445,2.044,6.418,5.152,9.009
				s6.391,3.755,9.845,3.491c3.499-0.317,6.472-1.999,9.018-5.053c2.954-3.545,3.864-7.963,2.311-11.753l11.953-4.362
				c2.845,8.009,1.099,17.09-4.72,24.07C126.767,165.51,120.857,168.718,113.959,169.345z"/>
			<path fill="#FFFFFF" d="M170.56,122.968c-5.833,4.412-12.258,6.156-19.276,5.233c-7.062-0.979-12.728-4.35-17.139-10.183
				c-4.412-5.832-6.113-12.201-5.091-19.206c0.979-7.062,4.406-12.77,10.238-17.181c5.833-4.412,12.202-6.113,19.263-5.134
				c7.019,0.923,12.741,4.25,17.152,10.083c4.412,5.832,6.057,12.244,5.077,19.306C179.763,112.891,176.392,118.557,170.56,122.968z
				 M163.063,113.059c3.058-2.313,4.835-5.26,5.375-8.783c0.496-3.581-0.455-6.956-2.811-10.07
				c-2.355-3.115-5.345-4.948-8.883-5.389c-3.58-0.496-6.899,0.412-9.957,2.725s-4.835,5.26-5.332,8.84
				c-0.539,3.524,0.412,6.899,2.768,10.014c2.355,3.115,5.346,4.948,8.926,5.445C156.687,116.279,160.006,115.371,163.063,113.059z"
				/>
			<path fill="#FFFFFF" d="M178.83,57.476l11.326-5.764l22.537,44.295l-11.326,5.764L178.83,57.476z"/>
			<path fill="#FFFFFF" d="M235.816,34.136l12.037-3.849l15.136,47.339l-9.333,2.983l-24.314-18.464l7.611,23.805l-12.105,3.87
				l-15.136-47.339l9.4-3.005l24.314,18.464L235.816,34.136z"/>
			<path fill="#FFFFFF" d="M317.195,22.325c5.041-0.063,9.25,1.517,12.699,4.739c3.45,3.223,5.207,7.39,5.271,12.431
				c0.064,5.041-1.587,9.252-4.953,12.561c-3.366,3.31-7.535,4.995-12.576,5.06l-6.603,0.084l0.189,14.909l-12.709,0.161
				l-0.631-49.699L317.195,22.325z M317.483,45.045c2.84-0.036,5.013-2.265,4.973-5.389c-0.039-3.124-2.268-5.226-5.107-5.189
				l-6.603,0.083l0.134,10.579L317.483,45.045z"/>
			<path fill="#FFFFFF" d="M371.369,77.601l-5.596-17.354l-4.468-0.827l-2.921,15.777l-12.495-2.313l9.047-48.866l19.546,3.618
				c4.957,0.918,8.848,3.299,11.604,7.131c2.839,3.774,3.765,8.134,2.86,13.021c-1.086,5.863-5.254,10.435-10.88,12.354
				l6.705,19.941L371.369,77.601z M365.3,37.85l-2.029,10.96l6.911,1.279c3.059,0.639,5.636-1.194,6.244-4.476
				c0.607-3.281-1.144-5.916-4.215-6.484L365.3,37.85z"/>
			<path fill="#FFFFFF" d="M415.274,92.782c-6.731-2.858-11.446-7.561-14.144-14.105c-2.669-6.611-2.569-13.203,0.289-19.935
				c2.859-6.731,7.533-11.38,14.116-13.984c6.611-2.669,13.269-2.542,20,0.317c6.731,2.858,11.38,7.533,14.05,14.144
				c2.697,6.545,2.663,13.165-0.196,19.896c-2.858,6.731-7.599,11.353-14.209,14.021C428.598,95.741,422.006,95.642,415.274,92.782z
				 M420.132,81.346c3.528,1.499,6.97,1.571,10.293,0.283c3.353-1.354,5.806-3.86,7.332-7.454c1.526-3.595,1.627-7.101,0.246-10.387
				c-1.354-3.353-3.795-5.777-7.324-7.276s-6.97-1.571-10.321-0.218c-3.324,1.288-5.777,3.795-7.304,7.389
				c-1.527,3.595-1.627,7.101-0.273,10.452C414.161,77.422,416.603,79.847,420.132,81.346z"/>
			<path fill="#FFFFFF" d="M503.154,85.764l-7.003,10.092l-10.092-7.003l-21.334,30.742l-10.442-7.246l21.334-30.742l-10.092-7.003
				l7.004-10.093L503.154,85.764z"/>
			<path fill="#FFFFFF" d="M499.887,133.902l13.625,13.588l-8.423,8.447l-22.625-22.563l35.098-35.194l22.374,22.313l-8.374,8.396
				l-13.373-13.338l-4.864,4.877l12.117,12.084l-8.273,8.296l-12.117-12.084L499.887,133.902z"/>
			<path fill="#FFFFFF" d="M520.688,165.193c1.43-6.83,5.24-12.258,11.391-16.343s12.632-5.49,19.423-4.12
				c6.85,1.332,12.376,5.162,16.5,11.372c2.475,3.726,3.904,7.805,4.251,12.176c0.347,4.372-0.369,8.428-2.168,12.264l-11.352-5.671
				c1.838-3.521,1.472-8.052-1.081-11.896c-2.2-3.313-5.032-5.267-8.477-5.962c-3.405-0.636-6.734,0.126-10.105,2.364
				c-3.371,2.239-5.424,5.051-6.159,8.437c-0.695,3.445,0.067,6.774,2.267,10.086c2.553,3.845,6.526,5.979,10.604,5.572
				l0.765,12.701c-8.487,0.438-16.69-3.83-21.718-11.4C520.703,178.563,519.316,171.984,520.688,165.193z"/>
			<path fill="#FFFFFF" d="M600.579,224.302l-11.372,4.644l-4.644-11.372l-34.643,14.145l-4.804-11.767l34.642-14.145l-4.643-11.372
				l11.372-4.644L600.579,224.302z"/>
			<path fill="#FFFFFF" d="M567.483,246.636l8.422,9.327c-3.927,2.714-5.407,6.363-4.441,10.948
				c0.805,3.821,2.312,5.463,4.465,5.009c1.459-0.308,2.337-1.653,2.786-3.997c0.157-0.976,0.344-3.192,0.588-6.509
				c0.697-9.434,3.834-15.898,12.171-17.654c4.516-0.951,8.465-0.114,11.917,2.496c3.467,2.68,5.705,6.416,6.715,11.21
				c1.712,8.129-0.788,15.548-7.312,20.404l-8.309-9.133c3.291-2.29,4.57-5.171,3.824-8.714c-0.629-2.987-2.271-4.238-4.146-3.843
				c-2.154,0.453-2.97,2.438-3.524,9.448c-0.197,2.509-0.428,4.517-0.745,6.106c-0.318,1.591-0.83,3.295-1.646,5.28
				c-1.506,3.873-4.768,6.301-9.561,7.311c-4.794,1.01-8.827,0.118-12.254-2.715c-3.426-2.834-5.683-7.002-6.854-12.56
				C557.414,258.77,560.62,250.911,567.483,246.636z"/>
		</g>
		<g>
			<path fill="#FFFFFF" d="M44.124,429.056l6.021-4.44l-5.621-15.558l-7.468,0.434l-4.681-12.954l52.313-1.462l5.26,14.556
				L48.78,441.942L44.124,429.056z M55.916,408.414l3.401,9.415l14.179-10.482L55.916,408.414z"/>
			<path fill="#FFFFFF" d="M115.681,457.943l6.815,10.644l-41.859,26.8l-5.283-8.252l11.592-28.247l-21.048,13.477l-6.854-10.704
				l41.858-26.799l5.321,8.312L94.632,471.42L115.681,457.943z"/>
			<path fill="#FFFFFF" d="M146.762,494.9c4.94,4.798,7.333,10.485,7.331,17.112c-0.003,6.627-2.427,12.486-7.323,17.529
				c-4.896,5.042-10.73,7.688-17.354,7.887s-12.331-2.077-17.271-6.873l-14.516-14.095l34.617-35.654L146.762,494.9z
				 M120.699,521.743c2.496,2.423,5.273,3.537,8.435,3.44c3.211-0.148,6.102-1.597,8.723-4.296s3.983-5.632,3.987-8.795
				c0.053-3.214-1.143-5.957-3.638-8.381l-5.145-4.994l-17.507,18.031L120.699,521.743z"/>
			<path fill="#FFFFFF" d="M168.588,561.376l12.557-0.512c-0.424,4.755,1.436,8.227,5.578,10.416
				c3.453,1.824,5.679,1.716,6.707-0.23c0.696-1.318,0.223-2.854-1.292-4.698c-0.65-0.745-2.235-2.305-4.629-4.613
				c-6.808-6.569-9.773-13.115-5.793-20.648c2.156-4.08,5.325-6.581,9.539-7.566c4.277-0.952,8.582-0.283,12.914,2.006
				c7.344,3.88,11.45,10.547,11.015,18.668l-12.336,0.549c0.344-3.994-1.055-6.82-4.256-8.512c-2.699-1.427-4.711-0.964-5.606,0.731
				c-1.027,1.945-0.021,3.842,5.013,8.751c1.803,1.756,3.199,3.217,4.219,4.479c1.02,1.261,2.003,2.744,3.009,4.641
				c2.014,3.634,1.796,7.693-0.493,12.026c-2.289,4.331-5.554,6.862-9.924,7.685c-4.369,0.823-9.018-0.107-14.039-2.761
				C171.479,576.876,167.486,569.387,168.588,561.376z"/>
			<path fill="#FFFFFF" d="M232.501,589.365l18.381,5.686l-3.524,11.396l-30.521-9.441l14.687-47.479l30.183,9.337l-3.504,11.327
				l-18.042-5.581l-2.035,6.579l16.346,5.057l-3.462,11.19l-16.346-5.056L232.501,589.365z"/>
			<path fill="#FFFFFF" d="M294.617,613.866l-6.858-16.896l-4.517-0.496l-1.752,15.949l-12.632-1.387l5.426-49.4l19.76,2.17
				c5.011,0.55,9.066,2.638,12.098,6.256c3.109,3.556,4.354,7.835,3.811,12.775c-0.65,5.928-4.471,10.793-9.94,13.121l8.155,19.395
				L294.617,613.866z M285.638,574.668l-1.217,11.08l6.986,0.768c3.098,0.411,5.533-1.607,5.897-4.925
				c0.364-3.316-1.575-5.815-4.681-6.155L285.638,574.668z"/>
			<path fill="#FFFFFF" d="M341.72,614.006l-21.058-47.799l13.844-1.426l13.114,33.055l6.169-35.042l13.844-1.427l-10.868,51.088
				L341.72,614.006z"/>
			<path fill="#FFFFFF" d="M401.438,590.576l18.355-5.765l3.573,11.379l-30.479,9.572l-14.89-47.413l30.142-9.466l3.552,11.312
				l-18.017,5.658l2.063,6.569l16.324-5.126l3.51,11.177l-16.324,5.126L401.438,590.576z"/>
			<path fill="#FFFFFF" d="M435.686,579.106l6.604-10.691c3.702,3.014,7.62,3.416,11.753,1.208c3.444-1.839,4.6-3.744,3.563-5.686
				c-0.702-1.315-2.239-1.782-4.615-1.56c-0.981,0.122-3.161,0.563-6.414,1.253c-9.253,1.964-16.337,0.758-20.351-6.757
				c-2.174-4.07-2.474-8.097-0.931-12.14c1.605-4.077,4.568-7.27,8.89-9.577c7.326-3.913,15.148-3.584,21.633,1.323l-6.45,10.527
				c-3.116-2.521-6.24-2.944-9.435-1.238c-2.692,1.438-3.434,3.364-2.53,5.055c1.036,1.941,3.171,2.17,10.057,0.745
				c2.463-0.511,4.455-0.85,6.071-0.989c1.616-0.139,3.395-0.123,5.529,0.105c4.139,0.365,7.381,2.818,9.688,7.14
				s2.578,8.442,0.813,12.523c-1.764,4.082-5.136,7.412-10.146,10.088C450.146,585.387,441.706,584.502,435.686,579.106z"/>
			<path fill="#FFFFFF" d="M507.538,478.747l9.383,33.603l13.34,13.669l-9.096,8.877l-13.24-13.567L474.46,511.03l10.213-9.968
				l19.146,7.011l-6.493-19.358L507.538,478.747z"/>
			<path fill="#FFFFFF" d="M567.854,480.742c-3.988,6.129-9.44,9.952-16.355,11.466c-6.976,1.476-13.448,0.229-19.578-3.761
				c-6.129-3.989-9.892-9.402-11.308-16.338c-1.476-6.975-0.19-13.508,3.799-19.638c3.988-6.129,9.402-9.892,16.377-11.367
				c6.915-1.514,13.427-0.326,19.557,3.663c6.129,3.988,9.854,9.461,11.329,16.436C573.091,468.139,571.844,474.612,567.854,480.742
				z M557.44,473.966c2.092-3.214,2.763-6.589,2.074-10.087c-0.748-3.536-2.789-6.389-6.063-8.519
				c-3.272-2.13-6.707-2.841-10.185-2.054c-3.536,0.748-6.351,2.729-8.441,5.942c-2.09,3.214-2.762,6.589-2.014,10.125
				c0.688,3.498,2.729,6.351,6.002,8.48c3.273,2.13,6.708,2.841,10.244,2.092C552.535,479.16,555.35,477.179,557.44,473.966z"/>
			<path fill="#FFFFFF" d="M544.652,418.924l4.192-11.998l30.365,10.608c3.955,1.383,6.672-0.15,8.194-4.508
				c1.522-4.356,0.352-7.248-3.604-8.63l-30.365-10.609l4.192-11.999l31.505,11.008c4.961,1.733,8.307,4.858,10.105,9.397
				c1.821,4.473,1.727,9.479-0.17,14.909c-1.897,5.429-4.941,9.405-9.176,11.837c-4.211,2.364-8.775,2.726-13.735,0.992
				L544.652,418.924z"/>
		</g>
		<g>
			<polygon fill="#FFFFFF" points="590.064,316.207 595.46,327.141 607.525,328.894 598.796,337.405 600.855,349.422 
				590.064,343.748 579.272,349.422 581.333,337.405 572.603,328.894 584.668,327.141 			"/>
		</g>
		<g>
			<polygon fill="#FFFFFF" points="46.064,321.207 51.46,332.14 63.526,333.894 54.796,342.404 56.856,354.422 46.064,348.747 
				35.273,354.422 37.333,342.404 28.604,333.894 40.669,332.14 			"/>
		</g>
		<g>
			<g>
				<path fill="#FFFFFF" d="M383.659,203.202l13.167-52.817l-32.164-8.004l-12.819,51.436c-8.452-2.117-17.127-4.104-25.754-6.071
					l12.92-51.776l-32.149-8.013l-13.184,52.808c-6.996-1.597-13.862-3.166-20.524-4.83l0.033-0.148l-44.35-11.085l-8.552,34.352
					c0,0,23.864,5.447,23.366,5.797c13.019,3.257,15.366,11.875,14.978,18.706L248.59,263.79l-9.272,37.239l-16.77,67.247
					c-1.611,3.949-5.639,9.89-14.752,7.623c0.331,0.479-23.366-5.82-23.366-5.82l-15.965,36.801l41.853,10.44
					c7.774,1.95,15.41,3.982,22.92,5.92l-13.301,53.428l32.117,8.008l13.173-52.867c8.774,2.382,17.286,4.583,25.623,6.65
					l-13.128,52.607l32.149,8.016l13.311-53.33c54.828,10.373,96.067,6.188,113.428-43.388c13.967-39.947-0.712-62.973-29.56-77.989
					c21.015-4.848,36.847-18.669,41.063-47.218C453.95,238.16,424.252,217.194,383.659,203.202z M374.646,380.185
					c-9.947,39.925-77.18,18.345-98.973,12.933l17.667-70.777C315.131,327.763,385.027,338.531,374.646,380.185z M384.589,276.568
					c-9.058,36.344-65.025,17.883-83.188,13.352l16.012-64.197C335.576,230.242,394.031,238.691,384.589,276.568z"/>
			</g>
		</g>
		<g>
			<path fill="#FFFFFF" d="M67.158,245.904c4.309,0.902,7.478,3.09,9.422,6.616c1.945,3.526,2.437,7.764,1.402,12.697l-4.294,20.499
				l-48.643-10.189l4.019-19.179c2.037-9.729,8.644-14.945,17.19-13.155c4.1,0.859,6.976,3.058,8.713,6.54
				C58.259,246.144,62.294,244.885,67.158,245.904z M38.771,265.418l7.644,1.602l1.339-6.394c0.466-2.224-0.56-4.252-2.992-4.761
				c-2.293-0.48-4.171,0.867-4.651,3.16L38.771,265.418z M66.792,263.236c0.523-2.502-0.78-4.588-3.212-5.098
				c-2.502-0.524-4.464,0.879-4.988,3.38l-1.615,7.713l8.199,1.718L66.792,263.236z"/>
			<path fill="#FFFFFF" d="M38.851,221.269l4.427-11.912l46.581,17.314l-4.428,11.911L38.851,221.269z"/>
			<path fill="#FFFFFF" d="M67.727,160.125l10.775,5.895l-5.895,10.775l32.824,17.956L99.333,205.9l-32.825-17.956l-5.895,10.775
				l-10.775-5.895L67.727,160.125z"/>
			<path fill="#FFFFFF" d="M113.959,169.345c-6.954,0.581-13.244-1.52-18.916-6.247s-8.871-10.536-9.497-17.436
				c-0.681-6.945,1.41-13.335,6.184-19.062c2.863-3.436,6.363-5.971,10.454-7.553c4.091-1.581,8.181-2.053,12.371-1.425
				l-2.191,12.498c-3.899-0.755-8.136,0.89-11.091,4.435c-2.545,3.054-3.609,6.326-3.291,9.826c0.363,3.445,2.044,6.418,5.152,9.009
				s6.391,3.755,9.845,3.491c3.499-0.317,6.472-1.999,9.018-5.053c2.954-3.545,3.864-7.963,2.311-11.753l11.953-4.362
				c2.845,8.009,1.099,17.09-4.72,24.07C126.767,165.51,120.857,168.718,113.959,169.345z"/>
			<path fill="#FFFFFF" d="M170.56,122.968c-5.833,4.412-12.258,6.156-19.276,5.233c-7.062-0.979-12.728-4.35-17.139-10.183
				c-4.412-5.832-6.113-12.201-5.091-19.206c0.979-7.062,4.406-12.77,10.238-17.181c5.833-4.412,12.202-6.113,19.263-5.134
				c7.019,0.923,12.741,4.25,17.152,10.083c4.412,5.832,6.057,12.244,5.077,19.306C179.763,112.891,176.392,118.557,170.56,122.968z
				 M163.063,113.059c3.058-2.313,4.835-5.26,5.375-8.783c0.496-3.581-0.455-6.956-2.811-10.07
				c-2.355-3.115-5.345-4.948-8.883-5.389c-3.58-0.496-6.899,0.412-9.957,2.725s-4.835,5.26-5.332,8.84
				c-0.539,3.524,0.412,6.899,2.768,10.014c2.355,3.115,5.346,4.948,8.926,5.445C156.687,116.279,160.006,115.371,163.063,113.059z"
				/>
			<path fill="#FFFFFF" d="M178.83,57.476l11.326-5.764l22.537,44.295l-11.326,5.764L178.83,57.476z"/>
			<path fill="#FFFFFF" d="M235.816,34.136l12.037-3.849l15.136,47.339l-9.333,2.983l-24.314-18.464l7.611,23.805l-12.105,3.87
				l-15.136-47.339l9.4-3.005l24.314,18.464L235.816,34.136z"/>
			<path fill="#FFFFFF" d="M317.195,22.325c5.041-0.063,9.25,1.517,12.699,4.739c3.45,3.223,5.207,7.39,5.271,12.431
				c0.064,5.041-1.587,9.252-4.953,12.561c-3.366,3.31-7.535,4.995-12.576,5.06l-6.603,0.084l0.189,14.909l-12.709,0.161
				l-0.631-49.699L317.195,22.325z M317.483,45.045c2.84-0.036,5.013-2.265,4.973-5.389c-0.039-3.124-2.268-5.226-5.107-5.189
				l-6.603,0.083l0.134,10.579L317.483,45.045z"/>
			<path fill="#FFFFFF" d="M371.369,77.601l-5.596-17.354l-4.468-0.827l-2.921,15.777l-12.495-2.313l9.047-48.866l19.546,3.618
				c4.957,0.918,8.848,3.299,11.604,7.131c2.839,3.774,3.765,8.134,2.86,13.021c-1.086,5.863-5.254,10.435-10.88,12.354
				l6.705,19.941L371.369,77.601z M365.3,37.85l-2.029,10.96l6.911,1.279c3.059,0.639,5.636-1.194,6.244-4.476
				c0.607-3.281-1.144-5.916-4.215-6.484L365.3,37.85z"/>
			<path fill="#FFFFFF" d="M415.274,92.782c-6.731-2.858-11.446-7.561-14.144-14.105c-2.669-6.611-2.569-13.203,0.289-19.935
				c2.859-6.731,7.533-11.38,14.116-13.984c6.611-2.669,13.269-2.542,20,0.317c6.731,2.858,11.38,7.533,14.05,14.144
				c2.697,6.545,2.663,13.165-0.196,19.896c-2.858,6.731-7.599,11.353-14.209,14.021C428.598,95.741,422.006,95.642,415.274,92.782z
				 M420.132,81.346c3.528,1.499,6.97,1.571,10.293,0.283c3.353-1.354,5.806-3.86,7.332-7.454c1.526-3.595,1.627-7.101,0.246-10.387
				c-1.354-3.353-3.795-5.777-7.324-7.276s-6.97-1.571-10.321-0.218c-3.324,1.288-5.777,3.795-7.304,7.389
				c-1.527,3.595-1.627,7.101-0.273,10.452C414.161,77.422,416.603,79.847,420.132,81.346z"/>
			<path fill="#FFFFFF" d="M503.154,85.764l-7.003,10.092l-10.092-7.003l-21.334,30.742l-10.442-7.246l21.334-30.742l-10.092-7.003
				l7.004-10.093L503.154,85.764z"/>
			<path fill="#FFFFFF" d="M499.887,133.902l13.625,13.588l-8.423,8.447l-22.625-22.563l35.098-35.194l22.374,22.313l-8.374,8.396
				l-13.373-13.338l-4.864,4.877l12.117,12.084l-8.273,8.296l-12.117-12.084L499.887,133.902z"/>
			<path fill="#FFFFFF" d="M520.688,165.193c1.43-6.83,5.24-12.258,11.391-16.343s12.632-5.49,19.423-4.12
				c6.85,1.332,12.376,5.162,16.5,11.372c2.475,3.726,3.904,7.805,4.251,12.176c0.347,4.372-0.369,8.428-2.168,12.264l-11.352-5.671
				c1.838-3.521,1.472-8.052-1.081-11.896c-2.2-3.313-5.032-5.267-8.477-5.962c-3.405-0.636-6.734,0.126-10.105,2.364
				c-3.371,2.239-5.424,5.051-6.159,8.437c-0.695,3.445,0.067,6.774,2.267,10.086c2.553,3.845,6.526,5.979,10.604,5.572
				l0.765,12.701c-8.487,0.438-16.69-3.83-21.718-11.4C520.703,178.563,519.316,171.984,520.688,165.193z"/>
			<path fill="#FFFFFF" d="M600.579,224.302l-11.372,4.644l-4.644-11.372l-34.643,14.145l-4.804-11.767l34.642-14.145l-4.643-11.372
				l11.372-4.644L600.579,224.302z"/>
			<path fill="#FFFFFF" d="M567.483,246.636l8.422,9.327c-3.927,2.714-5.407,6.363-4.441,10.948
				c0.805,3.821,2.312,5.463,4.465,5.009c1.459-0.308,2.337-1.653,2.786-3.997c0.157-0.976,0.344-3.192,0.588-6.509
				c0.697-9.434,3.834-15.898,12.171-17.654c4.516-0.951,8.465-0.114,11.917,2.496c3.467,2.68,5.705,6.416,6.715,11.21
				c1.712,8.129-0.788,15.548-7.312,20.404l-8.309-9.133c3.291-2.29,4.57-5.171,3.824-8.714c-0.629-2.987-2.271-4.238-4.146-3.843
				c-2.154,0.453-2.97,2.438-3.524,9.448c-0.197,2.509-0.428,4.517-0.745,6.106c-0.318,1.591-0.83,3.295-1.646,5.28
				c-1.506,3.873-4.768,6.301-9.561,7.311c-4.794,1.01-8.827,0.118-12.254-2.715c-3.426-2.834-5.683-7.002-6.854-12.56
				C557.414,258.77,560.62,250.911,567.483,246.636z"/>
		</g>
		<g>
			<path fill="#FFFFFF" d="M44.124,429.056l6.021-4.44l-5.621-15.558l-7.468,0.434l-4.681-12.954l52.313-1.462l5.26,14.556
				L48.78,441.942L44.124,429.056z M55.916,408.414l3.401,9.415l14.179-10.482L55.916,408.414z"/>
			<path fill="#FFFFFF" d="M115.681,457.943l6.815,10.644l-41.859,26.8l-5.283-8.252l11.592-28.247l-21.048,13.477l-6.854-10.704
				l41.858-26.799l5.321,8.312L94.632,471.42L115.681,457.943z"/>
			<path fill="#FFFFFF" d="M146.762,494.9c4.94,4.798,7.333,10.485,7.331,17.112c-0.003,6.627-2.427,12.486-7.323,17.529
				c-4.896,5.042-10.73,7.688-17.354,7.887s-12.331-2.077-17.271-6.873l-14.516-14.095l34.617-35.654L146.762,494.9z
				 M120.699,521.743c2.496,2.423,5.273,3.537,8.435,3.44c3.211-0.148,6.102-1.597,8.723-4.296s3.983-5.632,3.987-8.795
				c0.053-3.214-1.143-5.957-3.638-8.381l-5.145-4.994l-17.507,18.031L120.699,521.743z"/>
			<path fill="#FFFFFF" d="M168.588,561.376l12.557-0.512c-0.424,4.755,1.436,8.227,5.578,10.416
				c3.453,1.824,5.679,1.716,6.707-0.23c0.696-1.318,0.223-2.854-1.292-4.698c-0.65-0.745-2.235-2.305-4.629-4.613
				c-6.808-6.569-9.773-13.115-5.793-20.648c2.156-4.08,5.325-6.581,9.539-7.566c4.277-0.952,8.582-0.283,12.914,2.006
				c7.344,3.88,11.45,10.547,11.015,18.668l-12.336,0.549c0.344-3.994-1.055-6.82-4.256-8.512c-2.699-1.427-4.711-0.964-5.606,0.731
				c-1.027,1.945-0.021,3.842,5.013,8.751c1.803,1.756,3.199,3.217,4.219,4.479c1.02,1.261,2.003,2.744,3.009,4.641
				c2.014,3.634,1.796,7.693-0.493,12.026c-2.289,4.331-5.554,6.862-9.924,7.685c-4.369,0.823-9.018-0.107-14.039-2.761
				C171.479,576.876,167.486,569.387,168.588,561.376z"/>
			<path fill="#FFFFFF" d="M232.501,589.365l18.381,5.686l-3.524,11.396l-30.521-9.441l14.687-47.479l30.183,9.337l-3.504,11.327
				l-18.042-5.581l-2.035,6.579l16.346,5.057l-3.462,11.19l-16.346-5.056L232.501,589.365z"/>
			<path fill="#FFFFFF" d="M294.617,613.866l-6.858-16.896l-4.517-0.496l-1.752,15.949l-12.632-1.387l5.426-49.4l19.76,2.17
				c5.011,0.55,9.066,2.638,12.098,6.256c3.109,3.556,4.354,7.835,3.811,12.775c-0.65,5.928-4.471,10.793-9.94,13.121l8.155,19.395
				L294.617,613.866z M285.638,574.668l-1.217,11.08l6.986,0.768c3.098,0.411,5.533-1.607,5.897-4.925
				c0.364-3.316-1.575-5.815-4.681-6.155L285.638,574.668z"/>
			<path fill="#FFFFFF" d="M341.72,614.006l-21.058-47.799l13.844-1.426l13.114,33.055l6.169-35.042l13.844-1.427l-10.868,51.088
				L341.72,614.006z"/>
			<path fill="#FFFFFF" d="M401.438,590.576l18.355-5.765l3.573,11.379l-30.479,9.572l-14.89-47.413l30.142-9.466l3.552,11.312
				l-18.017,5.658l2.063,6.569l16.324-5.126l3.51,11.177l-16.324,5.126L401.438,590.576z"/>
			<path fill="#FFFFFF" d="M435.686,579.106l6.604-10.691c3.702,3.014,7.62,3.416,11.753,1.208c3.444-1.839,4.6-3.744,3.563-5.686
				c-0.702-1.315-2.239-1.782-4.615-1.56c-0.981,0.122-3.161,0.563-6.414,1.253c-9.253,1.964-16.337,0.758-20.351-6.757
				c-2.174-4.07-2.474-8.097-0.931-12.14c1.605-4.077,4.568-7.27,8.89-9.577c7.326-3.913,15.148-3.584,21.633,1.323l-6.45,10.527
				c-3.116-2.521-6.24-2.944-9.435-1.238c-2.692,1.438-3.434,3.364-2.53,5.055c1.036,1.941,3.171,2.17,10.057,0.745
				c2.463-0.511,4.455-0.85,6.071-0.989c1.616-0.139,3.395-0.123,5.529,0.105c4.139,0.365,7.381,2.818,9.688,7.14
				s2.578,8.442,0.813,12.523c-1.764,4.082-5.136,7.412-10.146,10.088C450.146,585.387,441.706,584.502,435.686,579.106z"/>
			<path fill="#FFFFFF" d="M507.538,478.747l9.383,33.603l13.34,13.669l-9.096,8.877l-13.24-13.567L474.46,511.03l10.213-9.968
				l19.146,7.011l-6.493-19.358L507.538,478.747z"/>
			<path fill="#FFFFFF" d="M567.854,480.742c-3.988,6.129-9.44,9.952-16.355,11.466c-6.976,1.476-13.448,0.229-19.578-3.761
				c-6.129-3.989-9.892-9.402-11.308-16.338c-1.476-6.975-0.19-13.508,3.799-19.638c3.988-6.129,9.402-9.892,16.377-11.367
				c6.915-1.514,13.427-0.326,19.557,3.663c6.129,3.988,9.854,9.461,11.329,16.436C573.091,468.139,571.844,474.612,567.854,480.742
				z M557.44,473.966c2.092-3.214,2.763-6.589,2.074-10.087c-0.748-3.536-2.789-6.389-6.063-8.519
				c-3.272-2.13-6.707-2.841-10.185-2.054c-3.536,0.748-6.351,2.729-8.441,5.942c-2.09,3.214-2.762,6.589-2.014,10.125
				c0.688,3.498,2.729,6.351,6.002,8.48c3.273,2.13,6.708,2.841,10.244,2.092C552.535,479.16,555.35,477.179,557.44,473.966z"/>
			<path fill="#FFFFFF" d="M544.652,418.924l4.192-11.998l30.365,10.608c3.955,1.383,6.672-0.15,8.194-4.508
				c1.522-4.356,0.352-7.248-3.604-8.63l-30.365-10.609l4.192-11.999l31.505,11.008c4.961,1.733,8.307,4.858,10.105,9.397
				c1.821,4.473,1.727,9.479-0.17,14.909c-1.897,5.429-4.941,9.405-9.176,11.837c-4.211,2.364-8.775,2.726-13.735,0.992
				L544.652,418.924z"/>
		</g>
		<g>
			<polygon fill="#FFFFFF" points="590.064,314.547 595.999,326.573 609.271,328.502 599.669,337.865 601.935,351.083 
				590.064,344.842 578.193,351.083 580.46,337.865 570.856,328.502 584.128,326.573 			"/>
		</g>
		<g>
			<polygon fill="#FFFFFF" points="46.064,317.546 52,329.572 65.272,331.501 55.669,340.863 57.936,354.082 46.064,347.84 
				34.194,354.082 36.46,340.863 26.857,331.501 40.13,329.572 			"/>
		</g>
	</g>
</g>
</svg>
